# xmcd
#
# Track frame offsets: 
#        300
#        15298
#        39780
#        61299
#        75847
#        93918
#        109799
#        128919
#        145454
#        158278
#
# Disc length: 2452 seconds
#
# Revision: 3
# Processed by: cddbd v1.5.2PL0 Copyright (c) Steve Scherf et al.
# Submitted via: ExactAudioCopy v1.0b1
#
DISCID=6709900a
DTITLE=Otis Rush - Right Place, Wrong Time
DYEAR=1900
DGENRE=Chicago Blues
TTITLE0=Tore Up
TTITLE1=Right Place, Wrong Time
TTITLE2=Easy Go
TTITLE3=Three Times A Fool
TTITLE4=Rainy Night in Georgia
TTITLE5=Natural Ball
TTITLE6=I Wonder Why
TTITLE7=Your Turn To Cry
TTITLE8=Lonely Man
TTITLE9=Take A Look Behind
EXTD=
EXTT0=
EXTT1=
EXTT2=
EXTT3=
EXTT4=
EXTT5=
EXTT6=
EXTT7=
EXTT8=
EXTT9=
PLAYORDER=
